<svg width="30" height="30" viewBox="0 0 30 30" fill="none" xmlns="http://www.w3.org/2000/svg">
<path d="M5.95833 1C3.21667 1 1 3.2735 1 6.08547V23.9145C1 26.7265 3.21667 29 5.95833 29H24.0417C26.7833 29 29 26.7265 29 23.9145V6.08547C29 3.2735 26.7833 1 24.0417 1H5.95833ZM22.3733 7.13846H24.7417C24.8 7.12649 24.8467 7.17436 24.8583 7.22222V18.6376C24.8583 18.853 24.87 19.0923 24.8817 19.3556C24.905 19.6068 24.9167 19.8462 24.9283 20.0496C24.9283 20.1333 24.8933 20.2051 24.8117 20.241C24.205 20.5043 23.5633 20.6957 22.91 20.8154C22.315 20.9231 21.72 20.9829 21.1133 20.9829C20.25 20.9949 19.3867 20.8154 18.605 20.4444C17.87 20.0974 17.2633 19.5231 16.8433 18.8171C16.4117 18.0872 16.2017 17.1778 16.2017 16.0889C16.1905 15.1951 16.417 14.3151 16.8569 13.5435C17.2968 12.7718 17.9334 12.1378 18.6983 11.7094C19.515 11.2427 20.495 11.0154 21.65 11.0154C21.7083 11.0154 21.79 11.0154 21.895 11.0274C22 11.0393 22.1167 11.0393 22.2567 11.0513V7.27008C22.2567 7.18632 22.2917 7.13846 22.3733 7.13846ZM5.29333 8.17949H7.94167C8 8.17949 8.05833 8.19145 8.105 8.20342C8.15167 8.22735 8.18667 8.26325 8.22167 8.31111C8.44333 8.82564 8.7 9.34017 8.96833 9.8547C9.24833 10.3692 9.51667 10.8718 9.80833 11.3744C10.0883 11.8769 10.345 12.3795 10.59 12.894H10.6133C10.8583 12.3675 11.115 11.853 11.3717 11.3504C11.6283 10.8479 11.8967 10.3453 12.165 9.84273C12.4333 9.34017 12.69 8.82564 12.9467 8.33504C12.9583 8.28718 12.9817 8.23932 13.0167 8.21538C13.0631 8.1901 13.1166 8.18166 13.1683 8.19145H15.63C15.6883 8.17949 15.7467 8.21538 15.7583 8.27521C15.77 8.28718 15.7467 8.33504 15.7233 8.35897L12.2233 14.2821L15.9567 20.5641C15.98 20.612 15.9917 20.6598 15.98 20.7077C15.9683 20.7556 15.9217 20.7197 15.8517 20.7316H13.18C12.9933 20.7316 12.865 20.7197 12.7833 20.6C12.5383 20.0974 12.2817 19.6068 12.0367 19.1043C11.7917 18.6137 11.5233 18.1111 11.2433 17.5966C10.9633 17.0821 10.6833 16.5675 10.4033 16.041H10.38C10.135 16.5556 9.86667 17.0701 9.59833 17.5846C9.33 18.0991 9.06167 18.6137 8.805 19.1162C8.53667 19.6188 8.26833 20.1333 8 20.6239C7.95333 20.7436 7.86 20.7556 7.73167 20.7556H5.165C5.11833 20.7556 5.08333 20.7795 5.08333 20.7197C5.0782 20.6973 5.07762 20.674 5.08163 20.6514C5.08565 20.6287 5.09417 20.6072 5.10667 20.588L8.735 14.4855L5.2 8.34701C5.165 8.29914 5.15333 8.25128 5.17667 8.22735C5.2 8.19145 5.24667 8.17949 5.29333 8.17949ZM21.5567 13.241C21.1017 13.241 20.6467 13.3368 20.2383 13.5521C19.8417 13.7556 19.5033 14.0547 19.2467 14.4376C18.99 14.8205 18.8617 15.335 18.8617 15.9573C18.85 16.3761 18.92 16.7949 19.06 17.1897C19.1767 17.5128 19.3517 17.8 19.585 18.0393C19.8067 18.2547 20.075 18.4222 20.3783 18.5179C20.6933 18.6256 21.02 18.6735 21.3467 18.6735C21.5217 18.6735 21.685 18.6615 21.8367 18.6496C21.9883 18.6615 22.1167 18.6376 22.2567 18.5897V13.3248C22.0273 13.2691 21.7924 13.241 21.5567 13.241Z" fill="white"/>
</svg>
