<svg width="30" height="30" viewBox="0 0 30 30" fill="none" xmlns="http://www.w3.org/2000/svg">
<path d="M22.9282 15.7647C22.1308 15.7647 21.3412 15.9229 20.6046 16.2304C19.8679 16.5378 19.1985 16.9884 18.6347 17.5565C18.0709 18.1246 17.6236 18.799 17.3185 19.5412C17.0134 20.2835 16.8563 21.079 16.8563 21.8824C16.8563 22.6857 17.0134 23.4812 17.3185 24.2235C17.6236 24.9657 18.0709 25.6401 18.6347 26.2082C19.1985 26.7763 19.8679 27.2269 20.6046 27.5343C21.3412 27.8418 22.1308 28 22.9282 28C24.5385 28 26.0829 27.3555 27.2216 26.2082C28.3603 25.0609 29 23.5049 29 21.8824C29 20.2599 28.3603 18.7038 27.2216 17.5565C26.0829 16.4092 24.5385 15.7647 22.9282 15.7647ZM7.1553 15.7647C6.35094 15.7536 5.5524 15.9036 4.80607 16.206C4.05974 16.5085 3.3805 16.9573 2.8078 17.5265C2.23511 18.0957 1.78039 18.7739 1.47004 19.5217C1.1597 20.2694 0.999923 21.0719 1 21.8824C1.00008 22.6929 1.16 23.4953 1.47049 24.243C1.78098 24.9907 2.23583 25.6688 2.80863 26.2378C3.38143 26.8069 4.06076 27.2557 4.80715 27.558C5.55354 27.8603 6.35211 28.0101 7.15647 27.9988C8.75211 27.9764 10.2749 27.322 11.3953 26.1771C12.5158 25.0323 13.1438 23.489 13.1437 21.8812C13.1435 20.2734 12.5152 18.7302 11.3945 17.5856C10.2738 16.4409 8.75095 15.7868 7.1553 15.7647ZM21.1136 8.11765C21.1136 9.74015 20.4739 11.2962 19.3352 12.4435C18.1965 13.5908 16.6521 14.2353 15.0417 14.2353C13.4314 14.2353 11.887 13.5908 10.7483 12.4435C9.60959 11.2962 8.96988 9.74015 8.96988 8.11765C8.96988 6.49515 9.60959 4.9391 10.7483 3.79182C11.887 2.64454 13.4314 2 15.0417 2C16.6521 2 18.1965 2.64454 19.3352 3.79182C20.4739 4.9391 21.1136 6.49515 21.1136 8.11765Z" fill="white"/>
</svg>
