<svg width="30" height="30" viewBox="0 0 30 30" fill="none" xmlns="http://www.w3.org/2000/svg">
<path d="M6.77875 3.7975C5.17375 3.7975 3.9875 5.2025 4.04125 6.725C4.09125 8.18875 4.025 10.085 3.5475 11.63C3.06875 13.18 2.26 14.1625 0.9375 14.2887V15.7113C2.26 15.8375 3.06875 16.82 3.5475 18.37C4.025 19.9163 4.09125 21.8113 4.04 23.275C3.9875 24.7975 5.17375 26.2025 6.78 26.2025H23.2225C24.8275 26.2025 26.015 24.7975 25.9625 23.275C25.9113 21.8113 25.9775 19.9163 26.4538 18.37C26.9338 16.82 27.7412 15.8375 29.0625 15.7113V14.2887C27.74 14.1625 26.9338 13.18 26.4538 11.63C25.9775 10.085 25.9113 8.18875 25.9625 6.725C26.015 5.2025 24.8275 3.7975 23.2225 3.7975H6.77875ZM20.005 17.5888C20.005 19.6863 18.4412 20.9588 15.845 20.9588H11.425C11.3624 20.9589 11.3003 20.9467 11.2424 20.9229C11.1844 20.899 11.1318 20.8639 11.0874 20.8197C11.0431 20.7755 11.0079 20.7229 10.9839 20.665C10.9599 20.6072 10.9475 20.5451 10.9475 20.4825V9.5175C10.9477 9.45496 10.9601 9.39306 10.9842 9.33534C11.0083 9.27762 11.0435 9.22521 11.0879 9.18111C11.1322 9.137 11.1848 9.10206 11.2427 9.07827C11.3005 9.05449 11.3625 9.04234 11.425 9.0425H15.8187C17.9837 9.0425 19.405 10.2138 19.405 12.015C19.405 13.2775 18.4487 14.41 17.2313 14.6075V14.6738C18.8888 14.855 20.005 16.0038 20.005 17.5888ZM15.3625 10.5525H12.8425V14.1125H14.965C16.6062 14.1125 17.51 13.4513 17.51 12.27C17.51 11.1638 16.7325 10.5525 15.3625 10.5525ZM12.8425 15.5238V19.4475H15.455C17.1637 19.4475 18.0675 18.7613 18.0675 17.4725C18.0675 16.185 17.1388 15.5238 15.345 15.5238H12.8425Z" fill="white"/>
</svg>
