<svg width="30" height="30" viewBox="0 0 30 30" fill="none" xmlns="http://www.w3.org/2000/svg">
<path d="M25.6716 1H4.32839C3.71244 1.00122 3.12197 1.24723 2.68577 1.68435C2.24958 2.12147 2.00306 2.71423 2 3.33333V26.6667C2 27.95 3.04812 29 4.32839 29H25.6716C26.2876 28.9988 26.878 28.7528 27.3142 28.3157C27.7504 27.8785 27.9969 27.2858 28 26.6667V25.5782C27.9617 24.1782 27.9222 21.2615 27.9222 19.9385C27.9222 19.2 27.379 18.5782 26.6803 18.5782C25.9049 18.5782 25.4 19.0448 25.0123 19.4333C23.8481 20.4833 22.1012 20.6782 20.5877 20.4052C19.8901 20.25 19.2296 20.0552 18.6864 19.7052C17.0173 18.7333 15.9309 16.9052 15.9309 14.9615C15.9309 13.0167 17.0173 11.2282 18.6864 10.2167C19.2691 9.86667 19.9284 9.67183 20.5877 9.51667C22.0618 9.24483 23.8481 9.4385 25.0123 10.4885C25.4383 10.8782 25.9432 11.3448 26.6803 11.3448C27.379 11.3448 27.9222 10.7218 27.9222 9.98333C27.9222 8.7 27.9617 5.74483 28 4.34483V3.33333C28 2.05 26.9519 1 25.6716 1Z" fill="white"/>
</svg>
