<svg width="30" height="30" viewBox="0 0 30 30" fill="none" xmlns="http://www.w3.org/2000/svg">
<path d="M10 1H12.9412V2.31423H11.2299V3.62847H12.9412V4.9427H10V1ZM13.5288 1H16.4712V2.14355H14.7598V2.37153H16.4712V5H13.5288V3.80037H15.2402V3.57117H13.5288V1ZM17.0599 1H20V2.14355H18.2886V2.37153H20V5H17.0599V3.80037H18.7712V3.57117H17.0599V1Z" fill="white"/>
<path fill-rule="evenodd" clip-rule="evenodd" d="M15.4895 29L7.38817 26.8003L5 7H26L23.613 26.7981L15.4895 29ZM9.7215 15.9629L9.94433 18.3908H18.5508L18.2627 21.5396L15.493 22.2721H15.4907L12.7257 21.5419L12.5483 19.6058H10.0552L10.4028 23.4187L15.4895 24.7992L20.5843 23.4187L21.205 16.6144L21.2657 15.9629L21.7137 11.0468H9.27467L9.501 13.4758H18.993L18.7667 15.9629H9.7215Z" fill="white"/>
</svg>
