<svg width="30" height="30" viewBox="0 0 30 30" fill="none" xmlns="http://www.w3.org/2000/svg">
<path d="M28.4887 12.5593C28.4062 12.5035 27.7188 11.9596 26.2337 11.9596C25.8487 11.9596 25.4638 12.0014 25.0788 12.0711C24.79 10.1185 23.1812 9.12831 23.1125 9.08647L22.7138 8.84937L22.4663 9.22594C22.1362 9.72803 21.875 10.2999 21.765 10.8856C21.49 12.0014 21.655 13.0614 22.2188 13.9679C21.545 14.3584 20.445 14.4561 20.2113 14.4561H2.1025C1.635 14.4561 1.25 14.8466 1.25 15.3347C1.25 16.9386 1.4975 18.5425 2.0475 20.0488C2.66625 21.7085 3.60125 22.9358 4.7975 23.689C6.145 24.5258 8.35875 25 10.875 25C11.9613 25 13.0887 24.9024 14.2025 24.6932C15.7425 24.4142 17.2275 23.8703 18.5887 23.0753C19.7161 22.4214 20.7252 21.5771 21.5725 20.5788C23.0163 18.947 23.8687 17.0921 24.4875 15.4881H24.7488C26.3162 15.4881 27.2925 14.8466 27.8288 14.3027C28.1863 13.9679 28.4475 13.5635 28.64 13.0893L28.75 12.7545L28.4887 12.5593ZM3.79375 13.94H6.21375C6.32375 13.94 6.43375 13.8424 6.43375 13.7169V11.5132C6.43375 11.4017 6.3375 11.2901 6.21375 11.2901H3.79375C3.67 11.2901 3.57375 11.3877 3.57375 11.5132V13.7169C3.5875 13.8424 3.67 13.94 3.79375 13.94ZM7.135 13.94H9.555C9.665 13.94 9.775 13.8424 9.775 13.7169V11.5132C9.775 11.4017 9.67875 11.2901 9.555 11.2901H7.135C7.01125 11.2901 6.915 11.3877 6.915 11.5132V13.7169C6.92875 13.8424 7.01125 13.94 7.135 13.94ZM10.5312 13.94H12.9375C13.075 13.94 13.1713 13.8424 13.1713 13.7169V11.5132C13.1713 11.4017 13.0887 11.2901 12.9375 11.2901H10.5312C10.4213 11.2901 10.325 11.3877 10.325 11.5132V13.7169C10.325 13.8424 10.4075 13.94 10.5312 13.94ZM13.8862 13.94H16.32C16.43 13.94 16.5262 13.8424 16.5262 13.7169V11.5132C16.5262 11.4017 16.4438 11.2901 16.32 11.2901H13.8862C13.7762 11.2901 13.68 11.3877 13.68 11.5132V13.7169C13.68 13.8424 13.7762 13.94 13.8862 13.94ZM7.135 10.8159H9.555C9.665 10.8159 9.775 10.6904 9.775 10.5649V8.37517C9.775 8.24965 9.67875 8.15202 9.555 8.15202H7.135C7.01125 8.15202 6.915 8.2357 6.915 8.37517V10.5649C6.92875 10.6904 7.01125 10.8159 7.135 10.8159ZM10.5312 10.8159H12.9375C13.075 10.8159 13.1713 10.6904 13.1713 10.5649V8.37517C13.1713 8.24965 13.0887 8.15202 12.9375 8.15202H10.5312C10.4213 8.15202 10.325 8.2357 10.325 8.37517V10.5649C10.325 10.6904 10.4075 10.8159 10.5312 10.8159ZM13.8862 10.8159H16.32C16.43 10.8159 16.5262 10.6904 16.5262 10.5649V8.37517C16.5262 8.24965 16.43 8.15202 16.32 8.15202H13.8862C13.7762 8.15202 13.68 8.2357 13.68 8.37517V10.5649C13.68 10.6904 13.7762 10.8159 13.8862 10.8159ZM13.8862 7.63598H16.32C16.43 7.63598 16.5262 7.53835 16.5262 7.41283V5.2371C16.5262 5.09763 16.43 5 16.32 5H13.8862C13.7762 5 13.68 5.08368 13.68 5.2371V7.41283C13.68 7.52441 13.7762 7.63598 13.8862 7.63598ZM17.2687 13.94H19.6887C19.8125 13.94 19.9087 13.8424 19.9087 13.7169V11.5132C19.9087 11.4017 19.8125 11.2901 19.6887 11.2901H17.2687C17.1587 11.2901 17.0625 11.3877 17.0625 11.5132V13.7169C17.0625 13.8424 17.1587 13.94 17.2687 13.94Z" fill="white"/>
</svg>
