<svg width="30" height="30" viewBox="0 0 30 30" fill="none" xmlns="http://www.w3.org/2000/svg">
<path fill-rule="evenodd" clip-rule="evenodd" d="M9.93201 11.09C9.41605 11.09 8.90514 11.1912 8.42846 11.3876C7.95177 11.5841 7.51865 11.872 7.15381 12.235C6.78897 12.598 6.49957 13.029 6.30212 13.5033C6.10467 13.9775 6.00304 14.4859 6.00304 14.9992C6.00304 15.5126 6.10467 16.0209 6.30212 16.4952C6.49957 16.9695 6.78897 17.4005 7.15381 17.7635C7.51865 18.1265 7.95177 18.4144 8.42846 18.6109C8.90514 18.8073 9.41605 18.9084 9.93201 18.9084H13.861V15.0779C13.8604 15.0255 13.8604 14.973 13.861 14.9205V11.09H9.93201ZM13.861 8.8199H9.93201C8.88978 8.8199 7.89024 8.40796 7.15327 7.6747C6.41631 6.94145 6.00228 5.94693 6.00228 4.90995C6.00228 3.87297 6.41631 2.87846 7.15327 2.1452C7.89024 1.41194 8.88978 1 9.93201 1H13.861V8.8199ZM16.1426 1V8.8199H20.0716C21.1004 8.79976 22.0803 8.37897 22.8007 7.64791C23.5212 6.91684 23.9247 5.93381 23.9247 4.90995C23.9247 3.88609 23.5212 2.90306 22.8007 2.172C22.0803 1.44093 21.1004 1.02014 20.0716 1H16.1426ZM20.0716 11.0885C19.0402 11.0884 18.0502 11.4917 17.3152 12.2115C16.5801 12.9312 16.159 13.9097 16.1426 14.9357V15.0613C16.1552 15.8316 16.3963 16.5811 16.8356 17.2155C17.2749 17.85 17.8928 18.3411 18.6117 18.6273C19.3307 18.9134 20.1186 18.9818 20.8765 18.8239C21.6344 18.666 22.3284 18.2887 22.8715 17.7396C23.4146 17.1904 23.7826 16.4938 23.929 15.7373C24.0755 14.9808 23.9941 14.1981 23.6949 13.4874C23.3958 12.7768 22.8922 12.17 22.2476 11.7432C21.6029 11.3164 20.8459 11.0886 20.0716 11.0885ZM9.93201 21.1786C9.15456 21.1783 8.3945 21.4074 7.74793 21.8369C7.10137 22.2665 6.59735 22.8771 6.29963 23.5917C6.00191 24.3062 5.92385 25.0926 6.07534 25.8513C6.22683 26.61 6.60105 27.307 7.15068 27.854C7.7003 28.4011 8.40065 28.7737 9.16313 28.9247C9.92561 29.0758 10.716 28.9984 11.4343 28.7025C12.1526 28.4065 12.7665 27.9053 13.1985 27.2621C13.6304 26.619 13.861 25.8628 13.861 25.0893V21.1786H9.93201Z" fill="white"/>
</svg>
