<svg width="30" height="30" viewBox="0 0 30 30" fill="none" xmlns="http://www.w3.org/2000/svg">
<path d="M25 23.3625L15.875 28.425C15.25 28.75 14.625 28.75 14 28.425L5 23.3625L21.3125 6.925L21.75 6.8C22.125 6.8 22.3375 6.9625 22.375 7.3L25 23.3625ZM11.6875 7.175L6 16.6125L8.375 1.675C8.4125 1.3375 8.625 1.175 9 1.175C9.25 1.175 9.4125 1.25 9.5 1.4875L12.1875 6.425L11.6875 7.175ZM17.3125 8.75L5.375 20.7375L14.4375 5.3625C14.5625 5.1125 14.75 5 15 5C15.25 5 15.4125 5.1125 15.5 5.3625L17.3125 8.75Z" fill="white"/>
</svg>
