<svg width="30" height="30" viewBox="0 0 30 30" fill="none" xmlns="http://www.w3.org/2000/svg">
<path d="M2.0653 13.0598L10.0188 5.09257L12.3443 7.43182C12.014 8.60145 12.5507 9.88116 13.624 10.5004V18.1236C12.7983 18.5914 12.2479 19.4859 12.2479 20.5041C12.2479 21.234 12.5379 21.934 13.054 22.4501C13.5701 22.9662 14.2701 23.2562 15 23.2562C15.7299 23.2562 16.4299 22.9662 16.946 22.4501C17.4621 21.934 17.7521 21.234 17.7521 20.5041C17.7521 19.4859 17.2017 18.5914 16.376 18.1236V11.4361L19.2244 14.312C19.1281 14.5184 19.1281 14.7523 19.1281 15C19.1281 15.7299 19.418 16.4299 19.9342 16.946C20.4503 17.4621 21.1503 17.7521 21.8802 17.7521C22.6101 17.7521 23.3101 17.4621 23.8262 16.946C24.3423 16.4299 24.6322 15.7299 24.6322 15C24.6322 14.2701 24.3423 13.5701 23.8262 13.054C23.3101 12.5379 22.6101 12.2479 21.8802 12.2479C21.6325 12.2479 21.3985 12.2479 21.1921 12.3443L17.6557 8.80786C17.8266 8.17053 17.7604 7.49285 17.4693 6.90067C17.1783 6.30848 16.6823 5.84203 16.0733 5.58794C15.4816 5.36778 14.8624 5.31273 14.312 5.4641L11.9727 3.1386L13.0598 2.0653C14.1331 0.978234 15.8669 0.978234 16.9402 2.0653L27.9347 13.0598C29.0218 14.1331 29.0218 15.8669 27.9347 16.9402L16.9402 27.9347C15.8669 29.0218 14.1331 29.0218 13.0598 27.9347L2.0653 16.9402C0.978234 15.8669 0.978234 14.1331 2.0653 13.0598Z" fill="white"/>
</svg>
