<svg width="30" height="30" viewBox="0 0 30 30" fill="none" xmlns="http://www.w3.org/2000/svg">
<path d="M28.8479 16.3184L25.0938 3.47004V3.46657C24.8318 2.67307 24.2079 2.20183 23.4288 2.20183C22.6221 2.20183 21.9637 2.66961 21.7155 3.42153L19.2541 10.8021H10.7462L8.28485 3.42153C8.03665 2.66961 7.37822 2.20183 6.57155 2.20183C5.77523 2.20183 5.10645 2.71466 4.90306 3.47004L1.15241 16.3184C1.00073 16.8278 1.19378 17.4065 1.6178 17.7287L14.3211 27.3061C14.4107 27.4309 14.5348 27.5244 14.6796 27.5764L14.976 27.7982L15.2691 27.5764C15.438 27.5175 15.5793 27.4135 15.6793 27.268L28.3791 17.7253C28.8066 17.4065 28.9996 16.8278 28.8479 16.3184ZM23.2564 3.88584C23.2909 3.82347 23.3564 3.82001 23.3771 3.82001C23.415 3.82001 23.4633 3.8304 23.4943 3.92396L25.542 10.8471H20.9399L23.2564 3.88584ZM6.45434 3.92049C6.48537 3.8304 6.53363 3.82001 6.57155 3.82001C6.66463 3.82001 6.67152 3.82347 6.68876 3.87891L9.00879 10.8506H4.46181L6.45434 3.92049ZM2.81745 16.5437L3.78959 13.1722L10.7669 22.5347L2.81745 16.5437ZM5.365 12.5104H9.57414L12.7043 22.3615L5.365 12.5104ZM15.0243 24.0732L11.3288 12.5104H18.7164L15.0243 24.0732ZM20.4676 12.5104H24.5871L17.3374 22.2402L20.4676 12.5104ZM19.0645 22.6941L26.2108 13.1063L27.2277 16.5437L19.0645 22.6941Z" fill="white"/>
</svg>
