<svg width="30" height="30" viewBox="0 0 30 30" fill="none" xmlns="http://www.w3.org/2000/svg">
<g clip-path="url(#clip0_973_282)">
<mask id="mask0_973_282" style="mask-type:luminance" maskUnits="userSpaceOnUse" x="0" y="0" width="30" height="30">
<path d="M0 0H30V30H0V0Z" fill="white"/>
</mask>
<g mask="url(#mask0_973_282)">
<path fill-rule="evenodd" clip-rule="evenodd" d="M14.2808 5.88085C14.7255 6.0153 15.199 6.02258 15.6476 5.90186L23.0314 18.9535C22.6895 19.2829 22.4493 19.7034 22.3392 20.1651H7.65812C7.53999 19.6803 7.27989 19.2418 6.91111 18.9057L14.2808 5.88085ZM13.2058 5.22138C13.2268 5.24472 13.2502 5.2669 13.2724 5.28908L5.88747 18.3443C5.85265 18.3349 5.81762 18.3264 5.78242 18.3186V11.6807C6.11818 11.6056 6.43461 11.4613 6.71153 11.2572C6.98845 11.053 7.2198 10.7933 7.39083 10.4948C7.56116 10.198 7.66873 9.86931 7.70687 9.5292C7.74502 9.18909 7.71293 8.84477 7.6126 8.51756L13.2058 5.22138ZM17.3728 4.24677C17.4911 3.87536 17.5205 3.48137 17.4588 3.09649C17.3971 2.71162 17.2459 2.3466 17.0175 2.03079C16.789 1.71498 16.4896 1.45721 16.1433 1.2782C15.7971 1.09919 15.4136 1.00394 15.0239 1.00012C14.6341 0.996298 14.2488 1.08401 13.8991 1.25619C13.5494 1.42838 13.245 1.68023 13.0104 1.9915C12.7758 2.30276 12.6175 2.66475 12.5482 3.04834C12.479 3.43193 12.5007 3.82642 12.6117 4.20008L7.01499 7.4986C6.74641 7.22315 6.41759 7.01375 6.05439 6.88688C5.6912 6.76001 5.30352 6.71912 4.92184 6.76743C4.54017 6.81573 4.1749 6.95191 3.85476 7.16526C3.53462 7.37861 3.26834 7.66332 3.07684 7.99699C2.88559 8.33108 2.77392 8.70476 2.75049 9.08901C2.72707 9.47325 2.79252 9.85773 2.94178 10.2126C3.09104 10.5674 3.32007 10.8831 3.6111 11.1351C3.90214 11.3871 4.24733 11.5686 4.61989 11.6655V18.3361C4.24814 18.434 3.90391 18.6161 3.61381 18.8683C3.32371 19.1206 3.09553 19.4362 2.94693 19.7907C2.79832 20.1452 2.73327 20.5292 2.75681 20.9129C2.78035 21.2966 2.89185 21.6697 3.08268 22.0034C3.27391 22.3363 3.53963 22.6204 3.85901 22.8334C4.17839 23.0464 4.54275 23.1825 4.92355 23.2311C5.30435 23.2797 5.69123 23.2395 6.05388 23.1136C6.41653 22.9877 6.74509 22.7795 7.01382 22.5053L12.6106 25.8039C12.5437 26.0333 12.5099 26.271 12.5102 26.51C12.5094 26.8375 12.5732 27.1619 12.698 27.4647C12.8228 27.7675 13.006 28.0427 13.2372 28.2746C13.4685 28.5065 13.7432 28.6906 14.0456 28.8162C14.3481 28.9418 14.6723 29.0065 14.9998 29.0067C15.3983 29.0058 15.7908 28.9095 16.1445 28.7259C16.4981 28.5422 16.8026 28.2765 17.0326 27.9511C17.2625 27.6256 17.4111 27.2498 17.4661 26.8551C17.521 26.4604 17.4806 26.0583 17.3482 25.6825L22.8936 22.4143C23.155 22.7097 23.483 22.9386 23.8505 23.0821C24.2179 23.2256 24.6142 23.2795 25.0067 23.2393C25.3991 23.1991 25.7763 23.0661 26.1071 22.8512C26.4378 22.6363 26.7127 22.3457 26.9088 22.0034C27.1054 21.6643 27.2194 21.2835 27.2414 20.8921C27.2635 20.5006 27.193 20.1095 27.0356 19.7504C26.8783 19.3913 26.6386 19.0743 26.3359 18.8251C26.0332 18.576 25.6761 18.4016 25.2934 18.3162V11.6865C25.6764 11.601 26.0339 11.4268 26.3372 11.1778C26.6405 10.9288 26.8811 10.6121 27.0397 10.2532C27.1982 9.89421 27.2702 9.50304 27.2499 9.11116C27.2296 8.71929 27.1176 8.33765 26.9228 7.99699C26.729 7.66043 26.4591 7.37389 26.1347 7.16028C25.8104 6.94666 25.4405 6.81189 25.0548 6.76675C24.669 6.72161 24.2781 6.76734 23.9131 6.9003C23.5482 7.03325 23.2195 7.24973 22.9532 7.53244L17.3728 4.24677ZM16.6736 5.34044L16.7611 5.2564L22.3731 8.56309C22.2816 8.88439 22.2554 9.22076 22.2961 9.55235C22.3368 9.88393 22.4435 10.204 22.61 10.4936C22.7731 10.7796 22.9917 11.0301 23.2528 11.2305C23.514 11.4309 23.8125 11.5772 24.1309 11.6608V18.3372C24.1003 18.3456 24.07 18.3546 24.0398 18.3641L16.6736 5.34044ZM22.3871 21.5155L16.8148 24.8001C16.5826 24.5515 16.3018 24.3534 15.9897 24.2181C15.6777 24.0827 15.3411 24.0131 15.001 24.0134C14.2937 24.0134 13.6564 24.3075 13.2035 24.7814L7.61843 21.4899C7.63244 21.4443 7.64528 21.3988 7.65578 21.3521H22.3415C22.3556 21.407 22.3696 21.4619 22.3871 21.5155Z" fill="white"/>
</g>
</g>
<defs>
<clipPath id="clip0_973_282">
<rect width="30" height="30" fill="white"/>
</clipPath>
</defs>
</svg>
