<svg width="30" height="30" viewBox="0 0 30 30" fill="none" xmlns="http://www.w3.org/2000/svg">
<g clip-path="url(#clip0_973_297)">
<mask id="mask0_973_297" style="mask-type:luminance" maskUnits="userSpaceOnUse" x="0" y="0" width="30" height="30">
<path d="M0 0H30V30H0V0Z" fill="white"/>
</mask>
<g mask="url(#mask0_973_297)">
<path d="M7.0708 1.25H8.31059V2.4749H9.44497V1.25H10.6848V4.95792H9.44497V3.71698H8.31059V4.95792H7.07195L7.0708 1.25ZM12.3141 2.47948H11.2233V1.25H14.6459V2.47948H13.5539V4.95792H12.3141V2.47948ZM15.189 1.25H16.4815L17.2767 2.55281L18.0708 1.25H19.3633V4.95792H18.1292V3.12L17.2767 4.43885H17.255L16.4013 3.12115V4.95792H15.189V1.25ZM19.9798 1.25H21.2207V3.73302H22.9624V4.95906H19.9798V1.25Z" fill="white"/>
<path fill-rule="evenodd" clip-rule="evenodd" d="M7.03188 26.5408L4.6875 6.65489H25.3125L22.967 26.5385L14.9885 28.75L7.03188 26.5408ZM11.7722 15.6554L11.5499 13.1575H20.8827L21.1004 10.7192H8.88583L9.54354 18.0949H17.9964L17.7133 21.2574L14.9931 21.993H14.9908L12.2752 21.2597L12.101 19.3152H9.65125L9.99271 23.1446L14.9885 24.531L19.9924 23.1446L20.602 16.3108L20.6616 15.6566L11.7722 15.6554Z" fill="white"/>
</g>
</g>
<defs>
<clipPath id="clip0_973_297">
<rect width="30" height="30" fill="white"/>
</clipPath>
</defs>
</svg>
