<svg width="30" height="30" viewBox="0 0 30 30" fill="none" xmlns="http://www.w3.org/2000/svg">
<path d="M13.0125 11.85C13.45 13.275 13.9 14.7 14.35 16.15H11.7C12.15 14.7 12.575 13.275 13.0125 11.85Z" fill="white"/>
<path d="M22 1H8C6.14348 1 4.36301 1.7375 3.05025 3.05025C1.7375 4.36301 1 6.14348 1 8V22C1 23.8565 1.7375 25.637 3.05025 26.9497C4.36301 28.2625 6.14348 29 8 29H22C23.8565 29 25.637 28.2625 26.9497 26.9497C28.2625 25.637 29 23.8565 29 22V8C29 6.14348 28.2625 4.36301 26.9497 3.05025C25.637 1.7375 23.8565 1 22 1ZM18.486 21.692H16.302C16.2149 21.7041 16.1265 21.6815 16.0558 21.6292C15.9852 21.5768 15.9378 21.4989 15.924 21.412C15.658 20.628 15.378 19.844 15.112 19.046C15.1036 18.996 15.0853 18.9481 15.058 18.9053C15.0307 18.8626 14.9951 18.8257 14.9533 18.797C14.9115 18.7682 14.8644 18.7482 14.8147 18.7381C14.765 18.7279 14.7137 18.7279 14.664 18.738H10.94C10.8883 18.7258 10.8346 18.7246 10.7824 18.7346C10.7302 18.7446 10.6807 18.7654 10.6371 18.7958C10.5935 18.8262 10.5568 18.8654 10.5294 18.9109C10.502 18.9565 10.4845 19.0073 10.478 19.06C10.24 19.844 9.974 20.6 9.736 21.384C9.72934 21.4335 9.71258 21.481 9.68676 21.5237C9.66095 21.5665 9.62662 21.6034 9.58592 21.6323C9.54521 21.6612 9.49901 21.6814 9.45016 21.6917C9.40132 21.7019 9.35089 21.702 9.302 21.692H7.384C7.048 21.692 7.02 21.692 7.132 21.342L10.156 12.62C10.436 11.822 10.716 11.024 10.968 10.226C11.0393 9.98978 11.077 9.74472 11.08 9.498C11.08 9.204 11.192 9.134 11.458 9.148H14.132C14.328 9.148 14.426 9.148 14.496 9.414L17.94 19.116C18.206 19.872 18.472 20.614 18.724 21.356C18.836 21.664 18.822 21.692 18.486 21.692ZM22.77 21.454C22.77 21.692 22.672 21.762 22.448 21.762H20.432C20.152 21.762 20.082 21.65 20.082 21.398V12.606C20.082 12.326 20.166 12.214 20.46 12.228H22.434C22.658 12.228 22.77 12.228 22.77 12.536C22.7602 15.504 22.7602 18.4762 22.77 21.454ZM21.37 11.234C21.1694 11.2467 20.9684 11.2161 20.7807 11.1443C20.593 11.0724 20.4229 10.9609 20.2821 10.8175C20.1413 10.674 20.0331 10.5019 19.9647 10.3129C19.8964 10.1239 19.8695 9.92233 19.886 9.722C19.888 9.52293 19.9296 9.32625 20.0084 9.14343C20.0871 8.9606 20.2016 8.7953 20.3449 8.65716C20.4883 8.51902 20.6577 8.41082 20.8433 8.33885C21.0289 8.26688 21.227 8.2326 21.426 8.238C21.6197 8.23738 21.8114 8.27695 21.9889 8.3542C22.1665 8.43146 22.3262 8.54472 22.4578 8.68682C22.5893 8.82893 22.69 8.99679 22.7534 9.17979C22.8168 9.36279 22.8415 9.55695 22.826 9.75C22.8375 9.94079 22.8097 10.1319 22.7445 10.3116C22.6793 10.4913 22.578 10.6557 22.4469 10.7947C22.3157 10.9337 22.1575 11.0444 21.9819 11.12C21.8063 11.1955 21.6171 11.2343 21.426 11.234H21.37Z" fill="white"/>
<path d="M14.35 16.15H11.7C12.15 14.7 12.575 13.275 12.95 11.85C13.45 13.275 13.9 14.7 14.35 16.15Z" fill="white"/>
</svg>
