<svg width="30" height="30" viewBox="0 0 30 30" fill="none" xmlns="http://www.w3.org/2000/svg">
<path d="M28.3754 13.1588C26.995 14.3362 25.2136 14.9069 23.4217 14.7458C21.6298 14.5847 19.9736 13.7049 18.816 12.2994C16.399 9.36064 16.7792 4.96644 19.6443 2.54061L20.3368 2.01386C19.2133 3.25746 18.5716 4.87602 18.5317 6.56727C18.4917 8.25851 19.0561 9.90679 20.1195 11.2043C22.3329 13.8935 26.1621 14.4202 29 12.5489L28.3754 13.1588ZM25.9584 18.8283C24.936 19.7083 23.7534 20.3736 22.4786 20.786C21.2037 21.1983 19.8616 21.3496 18.5293 21.2311C17.1971 21.1126 15.9008 20.7267 14.715 20.0955C13.5292 19.4643 12.4771 18.6003 11.6193 17.553C7.99374 13.1588 8.56405 6.60213 12.8685 2.88716L14.1177 2C12.5047 3.86527 11.601 6.25962 11.5711 8.74757C11.5412 11.2355 12.3871 13.6518 13.9548 15.5569C17.2408 19.5214 22.8353 20.3947 27.0582 17.7471L25.9584 18.8283ZM24.424 25.5929C18.395 30.7633 9.39235 29.9593 4.32749 23.7908C-0.723785 17.6362 0.0637793 8.4319 6.09272 3.28915L7.59996 2.19407C2.83384 7.46157 2.5351 15.6816 7.1926 21.3511C11.8501 27.0068 19.8344 28.1434 25.7683 24.276L24.424 25.5929Z" fill="white"/>
</svg>
