<svg width="30" height="30" viewBox="0 0 30 30" fill="none" xmlns="http://www.w3.org/2000/svg">
<path d="M25.7427 1.32744H4.25723C2.63971 1.32744 1.32739 2.63976 1.32739 4.25727V25.7427C1.32739 27.3603 2.63971 28.6726 4.25723 28.6726H25.7427C27.3602 28.6726 28.6725 27.3603 28.6725 25.7427V4.25727C28.6725 2.63976 27.3602 1.32744 25.7427 1.32744ZM16.2085 22.6542C16.2085 25.3155 14.6459 26.5301 12.3692 26.5301C10.3122 26.5301 9.12198 25.4681 8.51159 24.1802L10.6052 22.9167C11.0081 23.6308 11.3743 24.2351 12.2593 24.2351C13.1017 24.2351 13.6388 23.9055 13.6388 22.6176V13.883H16.2085V22.6542ZM22.2879 26.5301C19.9013 26.5301 18.3571 25.3948 17.6063 23.9055L19.6999 22.6969C20.2492 23.5942 20.9695 24.2595 22.233 24.2595C23.2951 24.2595 23.9787 23.7285 23.9787 22.9899C23.9787 22.111 23.2828 21.7997 22.1048 21.2808L21.4639 21.0062C19.6083 20.2188 18.3815 19.2239 18.3815 17.1302C18.3815 15.2014 19.8525 13.7365 22.1414 13.7365C23.7773 13.7365 24.9492 14.3042 25.7915 15.7935L23.7895 17.0753C23.35 16.2879 22.8739 15.9766 22.1353 15.9766C21.3846 15.9766 20.9085 16.4527 20.9085 17.0753C20.9085 17.8444 21.3846 18.1557 22.4894 18.6379L23.1303 18.9126C25.3154 19.8464 26.5423 20.8047 26.5423 22.9533C26.5423 25.2605 24.7234 26.5301 22.2879 26.5301Z" fill="white"/>
</svg>
