<svg width="30" height="30" viewBox="0 0 30 30" fill="none" xmlns="http://www.w3.org/2000/svg">
<path d="M15 1.25C16.8057 1.25 18.5937 1.60565 20.2619 2.29666C21.9301 2.98766 23.4459 4.00048 24.7227 5.27728C25.9995 6.55409 27.0123 8.06988 27.7033 9.7381C28.3943 11.4063 28.75 13.1943 28.75 15C28.75 18.6467 27.3013 22.1441 24.7227 24.7227C22.1441 27.3013 18.6467 28.75 15 28.75C13.1943 28.75 11.4063 28.3943 9.7381 27.7033C8.06988 27.0123 6.55409 25.9995 5.27728 24.7227C2.69866 22.1441 1.25 18.6467 1.25 15C1.25 11.3533 2.69866 7.85591 5.27728 5.27728C7.85591 2.69866 11.3533 1.25 15 1.25ZM21.5312 18.3687C24.1437 15.7562 24.0475 11.4113 21.3113 8.68875C18.575 5.96625 14.2438 5.85625 11.6313 8.46875C6.915 13.185 8.4275 21.5725 8.4275 21.5725C8.4275 21.5725 16.8287 23.0712 21.5312 18.3687ZM16.5812 9.3075L17.9288 12.0712L20.6925 13.4188L17.9288 14.7662L16.5812 17.53L15.2338 14.7662L12.47 13.4188L15.2338 12.0712L16.5812 9.3075Z" fill="white"/>
</svg>
