<svg width="30" height="30" viewBox="0 0 30 30" fill="none" xmlns="http://www.w3.org/2000/svg">
<g clip-path="url(#clip0_973_331)">
<path fill-rule="evenodd" clip-rule="evenodd" d="M23.41 1.57271L23.695 1.74592L26.665 3.70005C27.0407 3.94746 27.3549 4.27539 27.5842 4.65938C27.8136 5.04337 27.9521 5.4735 27.9895 5.9177L28 6.16345V24.7262C27.9999 25.4324 27.7441 26.1154 27.2787 26.6518C26.8133 27.1882 26.169 27.5428 25.462 27.6515L25.2295 27.6782L7.936 28.9913C7.47568 29.0262 7.01341 28.9558 6.58517 28.7856C6.15692 28.6153 5.77427 28.3498 5.467 28.0098L5.3065 27.8158L1.9 23.3332C1.38229 22.6517 1.07404 21.8377 1.012 20.9882L1 20.6685V5.26188C1.00005 4.55568 1.25586 3.87276 1.72125 3.33635C2.18665 2.79993 2.83099 2.44536 3.538 2.3366L3.7705 2.30995L20.8525 1.01312C21.7419 0.945509 22.6315 1.14029 23.4085 1.57271H23.41ZM25 8.45067L8.5 9.7031V25.9787L25 24.7262V8.45067ZM20.5 10.5528C20.8978 10.5528 21.2794 10.7088 21.5607 10.9864C21.842 11.2641 22 11.6406 22 12.0333V22.3961C22 22.7887 21.842 23.1653 21.5607 23.4429C21.2794 23.7205 20.8978 23.8765 20.5 23.8765H19.75C19.4937 23.8766 19.2417 23.8118 19.018 23.6885C18.7943 23.5651 18.6063 23.3872 18.472 23.1718L14.5 16.8002V23.1363C14.5 23.5289 14.342 23.9055 14.0607 24.1831C13.7794 24.4607 13.3978 24.6167 13 24.6167C12.6022 24.6167 12.2206 24.4607 11.9393 24.1831C11.658 23.9055 11.5 23.5289 11.5 23.1363V12.7735C11.5 12.3808 11.658 12.0043 11.9393 11.7267C12.2206 11.449 12.6022 11.293 13 11.293H13.75C14.0063 11.293 14.2583 11.3577 14.482 11.4811C14.7057 11.6044 14.8937 11.7823 15.028 11.9977L19 18.3679V12.0333C19 11.6406 19.158 11.2641 19.4393 10.9864C19.7206 10.7088 20.1022 10.5528 20.5 10.5528ZM21.082 3.96505L5.8675 5.11976L7.573 6.80298L24.07 5.55204L22.03 4.20931C21.7506 4.02546 21.4168 3.93945 21.082 3.96505Z" fill="white"/>
</g>
<defs>
<clipPath id="clip0_973_331">
<rect width="30" height="30" fill="white"/>
</clipPath>
</defs>
</svg>
