<svg width="30" height="30" viewBox="0 0 30 30" fill="none" xmlns="http://www.w3.org/2000/svg">
<path d="M13.0625 13.1C13.0815 13.4795 12.9668 13.8537 12.7384 14.1574C12.51 14.4612 12.1824 14.6753 11.8125 14.7625C11.1599 14.9545 10.4795 15.0348 9.80005 15C9.62505 15 9.61255 14.8875 9.61255 14.7625V11.575C9.61255 11.4875 9.70005 11.3375 9.75005 11.3375C10.4651 11.2577 11.1886 11.3042 11.8875 11.475C12.2393 11.5714 12.5475 11.7851 12.7612 12.0806C12.9749 12.3761 13.0812 12.7358 13.0625 13.1Z" fill="white"/>
<path d="M21.875 1.25H8.125C6.30164 1.25 4.55295 1.97433 3.26364 3.26364C1.97433 4.55295 1.25 6.30164 1.25 8.125V21.875C1.25 23.6984 1.97433 25.447 3.26364 26.7364C4.55295 28.0257 6.30164 28.75 8.125 28.75H21.875C23.6984 28.75 25.447 28.0257 26.7364 26.7364C28.0257 25.447 28.75 23.6984 28.75 21.875V8.125C28.75 6.30164 28.0257 4.55295 26.7364 3.26364C25.447 1.97433 23.6984 1.25 21.875 1.25ZM13.625 16.375C12.9316 16.8169 12.136 17.0726 11.315 17.1175H9.4725C9.0875 17.1175 9.0875 17.1175 9.0875 17.4888V20.6787C9.0875 20.9537 9.005 21.0362 8.73 21.0362H6.915C6.65375 21.0362 6.585 20.94 6.585 20.6925V9.10125C6.585 8.82625 6.585 8.74375 6.92875 8.74375H11.2325C12.0181 8.76504 12.785 8.98755 13.46 9.39C14.0429 9.71847 14.5283 10.1957 14.8665 10.7731C15.2046 11.3504 15.3836 12.0072 15.385 12.6763C15.4645 13.3954 15.342 14.1226 15.0311 14.7759C14.7202 15.4293 14.2332 15.9831 13.625 16.375ZM21.765 20.9125C20.5688 21.3767 19.2602 21.4678 18.0112 21.1737C17.6372 21.0912 17.2688 20.9813 16.9113 20.8438C16.856 20.8178 16.8074 20.7795 16.7692 20.7319C16.7311 20.6842 16.7044 20.6284 16.6912 20.5687V18.4925C17.1312 18.6575 17.5437 18.85 17.97 18.9875C18.6844 19.2158 19.4407 19.2816 20.1838 19.18C20.3309 19.1525 20.4753 19.1071 20.61 19.0425C20.6906 19.0072 20.7606 18.9516 20.8133 18.8812C20.866 18.8107 20.8995 18.7278 20.9106 18.6406C20.9217 18.5533 20.91 18.4646 20.8766 18.3833C20.8431 18.3019 20.7892 18.2306 20.72 18.1763C20.4055 17.9585 20.0691 17.7742 19.7163 17.6262C19.1525 17.3512 18.575 17.1312 18.0387 16.815C17.5546 16.5794 17.1593 16.194 16.9116 15.7159C16.6639 15.2379 16.577 14.6926 16.6637 14.1613C16.7337 13.6498 16.9462 13.1684 17.2768 12.772C17.6075 12.3757 18.0431 12.0804 18.5337 11.92C19.4182 11.6215 20.3616 11.5413 21.2837 11.6863C21.7237 11.6863 22.15 11.8513 22.59 11.9338C22.8238 11.9338 22.9062 12.1263 22.8925 12.36V13.9688C22.8925 14.2712 22.8237 14.2987 22.5487 14.1887C21.69 13.7912 20.7407 13.6298 19.7987 13.7212C19.6653 13.7368 19.5353 13.7739 19.4137 13.8312C19.3313 13.8636 19.2587 13.917 19.2032 13.9861C19.1476 14.0552 19.1111 14.1375 19.0972 14.225C19.0833 14.3126 19.0926 14.4022 19.1239 14.4851C19.1553 14.5679 19.2078 14.6412 19.2762 14.6975C19.6736 14.9615 20.0916 15.1925 20.5275 15.385C21.05 15.6462 21.6 15.8525 22.1087 16.1412C22.5704 16.3513 22.9528 16.7034 23.2002 17.1462C23.4475 17.589 23.5469 18.0993 23.4837 18.6025C23.4403 19.1045 23.2541 19.5836 22.9471 19.9832C22.6401 20.3828 22.2251 20.6862 21.7512 20.8575L21.765 20.9125Z" fill="white"/>
</svg>
