<svg width="30" height="30" viewBox="0 0 30 30" fill="none" xmlns="http://www.w3.org/2000/svg">
<path d="M17.7875 15.005C17.7875 15.7461 17.4932 16.4568 16.9693 16.9809C16.4454 17.505 15.7348 17.7997 14.9937 17.8C14.2525 17.8 13.5416 17.5055 13.0174 16.9814C12.4932 16.4572 12.1987 15.7463 12.1987 15.005C12.1987 14.2639 12.4931 13.5532 13.0169 13.0291C13.5408 12.5049 14.2514 12.2103 14.9925 12.21C15.7338 12.21 16.4447 12.5045 16.9689 13.0286C17.493 13.5528 17.7875 14.2637 17.7875 15.005ZM21.0975 1.6425C19.415 1.6425 17.2137 2.8425 14.9875 4.92C12.7625 2.85375 10.56 1.6675 8.87875 1.6675C8.36625 1.6675 7.9 1.78375 7.49625 2.015C5.7775 3.00625 5.3925 6.095 6.28 9.97125C2.475 11.1463 0 13.025 0 15.005C0 16.9925 2.4875 18.8762 6.30375 20.0425C5.42375 23.9338 5.81625 27.0275 7.53875 28.0175C7.93875 28.2512 8.40125 28.3612 8.91625 28.3612C10.5975 28.3612 12.8 27.1613 15.0262 25.0812C17.2512 27.1488 19.4538 28.335 21.135 28.335C21.6475 28.335 22.1138 28.2225 22.5175 27.9912C24.235 27.0012 24.6213 23.9125 23.7337 20.035C27.525 18.87 30 16.9875 30 15.005C30 13.0175 27.5125 11.1337 23.6963 9.965C24.5763 6.0775 24.1838 2.98125 22.4613 1.99C22.0448 1.75599 21.5752 1.63612 21.0975 1.6425ZM21.0912 3.005V3.0125C21.3725 3.0125 21.5987 3.0675 21.7887 3.17125C22.6213 3.64875 22.9825 5.465 22.7012 7.80125C22.6337 8.37625 22.5237 8.9825 22.3887 9.60125C21.1106 9.29207 19.8131 9.06907 18.505 8.93375C17.7257 7.85901 16.8759 6.83718 15.9613 5.875C17.9513 4.025 19.82 3.01 21.0925 3.00625L21.0912 3.005ZM8.87875 3.03C10.1438 3.03 12.0213 4.04 14.0163 5.88C13.1588 6.78 12.3038 7.80125 11.4913 8.9325C10.1803 9.06722 8.88014 9.29191 7.6 9.605C7.46576 9.01877 7.35981 8.42642 7.2825 7.83C6.995 5.495 7.35 3.68 8.175 3.19625C8.4125 3.08375 8.675 3.03625 8.87875 3.03ZM14.9812 6.8425C15.5512 7.42917 16.1179 8.08083 16.6812 8.7975C16.1313 8.7725 15.5688 8.755 15 8.755C14.4242 8.75417 13.8575 8.76833 13.3 8.7975C13.85 8.0825 14.4187 7.42875 14.9812 6.8425ZM15 10.125C15.925 10.125 16.8462 10.1675 17.7525 10.2413C18.2608 10.9696 18.7537 11.7446 19.2313 12.5662C19.6954 13.3671 20.1196 14.1779 20.5037 14.9987C20.1187 15.8175 19.6963 16.6362 19.2375 17.4362C18.7625 18.2612 18.2712 19.0462 17.7625 19.7738C15.9278 19.9345 14.0826 19.9366 12.2475 19.78C11.7231 19.0255 11.2298 18.2498 10.7687 17.455C10.3046 16.6542 9.88042 15.8433 9.49625 15.0225C9.88227 14.1901 10.3048 13.3752 10.7625 12.58C11.2375 11.755 11.7288 10.9725 12.2375 10.245C13.1561 10.1634 14.0778 10.1226 15 10.1225V10.125ZM10.4562 10.4425C10.1562 10.9138 9.85625 11.3962 9.57625 11.8925C9.29625 12.38 9.03167 12.8692 8.7825 13.36C8.45125 12.54 8.17 11.7225 7.9375 10.9263C8.7375 10.7388 9.58125 10.5712 10.4562 10.4425ZM19.5312 10.4425C20.4013 10.57 21.2371 10.7313 22.0387 10.9263C21.8138 11.7163 21.5325 12.5287 21.2138 13.3425C20.7036 12.3476 20.1424 11.3796 19.5325 10.4425H19.5312ZM23.36 11.2863C23.9658 11.4746 24.5387 11.6821 25.0788 11.9088C27.2437 12.8337 28.6438 14.0437 28.6438 15.0037C28.6375 15.9637 27.2375 17.1787 25.0725 18.0975C24.5475 18.3225 23.9725 18.525 23.3787 18.7137C23.0032 17.4431 22.5438 16.1987 22.0037 14.9887C22.5662 13.7175 23.0162 12.4763 23.36 11.2838V11.2863ZM6.61625 11.2913C6.96375 12.4913 7.4225 13.7375 7.99125 15.0162C7.45443 16.2187 7.00087 17.4566 6.63375 18.7213C6.02875 18.5338 5.45375 18.3237 4.92125 18.0963C2.75625 17.175 1.35625 15.9637 1.35625 15.0037C1.35625 14.0437 2.75625 12.8263 4.92125 11.9088C5.44625 11.6838 6.02125 11.4812 6.61625 11.2913ZM21.2138 16.6412C21.545 17.4625 21.8263 18.2812 22.0588 19.0762C21.2587 19.2725 20.4137 19.4387 19.5387 19.5637C20.1477 18.6192 20.7059 17.6437 21.2138 16.6412ZM8.7825 16.6663C9.0325 17.1562 9.295 17.645 9.5825 18.135C9.87 18.6233 10.1638 19.0996 10.4638 19.5637C9.6209 19.4418 8.78416 19.2808 7.95625 19.0812C8.18125 18.2938 8.46375 17.4787 8.78125 16.665L8.7825 16.6663ZM22.4 20.4C22.54 21.0162 22.65 21.61 22.7175 22.1787C23.005 24.5138 22.65 26.3288 21.825 26.8137C21.6412 26.9263 21.4025 26.9738 21.1213 26.9738C19.8562 26.9738 17.9788 25.965 15.9837 24.1237C16.8412 23.2237 17.6963 22.2037 18.5088 21.0737C19.8925 20.9262 21.2013 20.7 22.4 20.4ZM7.6125 20.4125C8.8125 20.705 10.12 20.9312 11.4962 21.0775C12.3212 22.2087 13.1775 23.2362 14.04 24.135C12.0463 25.9888 10.175 27.0037 8.9025 27.0037C8.66219 27.0049 8.42512 26.9483 8.21125 26.8388C7.37875 26.3638 7.0175 24.5462 7.29875 22.21C7.36625 21.635 7.4775 21.03 7.6125 20.4125ZM13.3125 21.2125C13.8633 21.2392 14.4237 21.2533 14.9937 21.255C15.5696 21.2558 16.1362 21.2417 16.6937 21.2125C16.1437 21.9275 15.575 22.5812 15.0125 23.1687C14.4425 22.5804 13.8758 21.9283 13.3125 21.2125Z" fill="white"/>
</svg>
