<svg width="30" height="30" viewBox="0 0 30 30" fill="none" xmlns="http://www.w3.org/2000/svg">
<path d="M14.1955 19.649C14.1689 19.6971 14.1822 19.6758 14.1955 19.649V19.649ZM25.2337 15.7761C24.3426 15.7758 23.4633 15.9814 22.6639 16.377C22.4025 15.8473 22.1322 15.3843 22.0879 15.0371C22.0347 14.632 21.9771 14.3916 22.0392 13.9108C22.1012 13.43 22.3803 12.7489 22.3759 12.7C22.3715 12.651 22.3139 12.4061 21.7423 12.4017C21.1707 12.3972 20.6789 12.513 20.6218 12.6643C20.5208 12.9409 20.4423 13.2253 20.387 13.5146C20.2851 14.0355 19.2443 15.8963 18.655 16.8667C18.46 16.4883 18.2961 16.1545 18.2607 15.8874C18.2075 15.4823 18.1499 15.2419 18.2119 14.7611C18.274 14.2803 18.5531 13.5992 18.5487 13.5502C18.5442 13.5013 18.4866 13.2564 17.9155 13.252C17.3444 13.2475 16.8521 13.3633 16.7945 13.5146C16.7369 13.666 16.6749 14.0221 16.5597 14.3649C16.4445 14.7077 15.0582 17.806 14.6953 18.6118C14.5092 19.0214 14.3497 19.3508 14.2345 19.5734C14.2168 19.609 14.2035 19.6312 14.1946 19.649C14.2079 19.6268 14.2168 19.6045 14.2168 19.6134C14.1193 19.8048 14.0617 19.9117 14.0617 19.9117V19.9161C13.9864 20.0586 13.9022 20.1877 13.8623 20.1877C13.8357 20.1877 13.7781 19.8138 13.8756 19.3018C14.0838 18.2245 14.5757 16.5507 14.5712 16.4928C14.5668 16.4616 14.6643 16.1723 14.2478 16.0165C13.8446 15.8696 13.6984 16.1144 13.6629 16.1144C13.6275 16.1144 13.6009 16.2034 13.6009 16.2034C13.6009 16.2034 14.0484 14.3159 12.7418 14.3159C11.9265 14.3159 10.7923 15.2152 10.2349 16.0298C9.88486 16.2212 9.12721 16.6352 8.32969 17.076C8.02397 17.2451 7.70939 17.4187 7.41253 17.5835C7.39038 17.5612 7.37266 17.5389 7.3505 17.5167C5.76476 15.8161 2.83695 14.6142 2.96101 12.3305C3.00531 11.498 3.29331 9.31221 8.5911 6.659C12.9332 4.48658 16.4046 5.0831 17.0023 6.40971C17.8619 8.30168 15.1463 11.823 10.6372 12.3305C8.91853 12.5219 8.01511 11.8541 7.78914 11.6048C7.55432 11.3422 7.51887 11.3288 7.43026 11.3778C7.28404 11.4579 7.37709 11.6894 7.43026 11.8274C7.56318 12.1791 8.11701 12.8023 9.06031 13.114C9.88885 13.3855 11.9039 13.5369 14.3404 12.5887C17.0777 11.5292 19.2084 8.57768 18.5837 6.10699C17.9474 3.59624 13.8038 2.77268 9.88575 4.17051C7.55121 5.00297 5.0266 6.31177 3.21046 8.01677C1.05315 10.0467 0.707995 11.8141 0.849777 12.553C1.35443 15.1751 4.95128 16.8845 6.39081 18.1488C6.31992 18.1889 6.25346 18.2245 6.19143 18.2601C5.46967 18.6207 2.72751 20.063 2.04119 21.5855C1.26582 23.3128 2.16968 24.5504 2.76295 24.7195C4.61454 25.2359 6.51044 24.3055 7.52906 22.7786C8.54768 21.2516 8.42406 19.2573 7.95441 18.3491C7.94998 18.3358 7.94112 18.3269 7.93669 18.3135C8.12277 18.2022 8.31329 18.0909 8.50382 17.9797C8.87112 17.7615 9.23001 17.5612 9.54459 17.3876C9.36736 17.8684 9.23887 18.4471 9.17241 19.284C9.09266 20.2634 9.49585 21.5321 10.0187 22.0307C10.2491 22.2488 10.5278 22.2533 10.7006 22.2533C11.312 22.2533 11.5867 21.7458 11.892 21.1404C12.2686 20.4014 12.6009 19.5422 12.6009 19.5422C12.6009 19.5422 12.1844 21.866 13.3231 21.866C13.7391 21.866 14.1556 21.3273 14.3422 21.0513V21.0558C14.3422 21.0558 14.351 21.038 14.3732 21.0024C14.4175 20.9356 14.4396 20.8955 14.4396 20.8955V20.8822C14.608 20.5928 14.9757 19.9295 15.5291 18.8344C16.2469 17.4187 16.9332 15.6514 16.9332 15.6514C16.9995 16.0399 17.0913 16.4236 17.2079 16.8C17.332 17.2229 17.5934 17.6858 17.8016 18.1355C17.6333 18.367 17.5314 18.5005 17.5314 18.5005C17.5317 18.5039 17.5333 18.5071 17.5358 18.5094C17.4029 18.6875 17.2522 18.8789 17.0972 19.0659C16.5305 19.7425 15.8566 20.5171 15.768 20.7397C15.6616 21.0024 15.6882 21.1982 15.892 21.3496C16.0427 21.4653 16.3085 21.4831 16.5872 21.4609C17.0967 21.4253 17.4556 21.3006 17.6284 21.2205C17.947 21.1057 18.248 20.9469 18.523 20.7486C19.0768 20.3391 19.4135 19.7514 19.3825 18.9768C19.3648 18.5495 19.2274 18.1221 19.0591 17.7215C19.1078 17.6502 19.161 17.5746 19.2097 17.4989C20.0866 16.2123 20.7645 14.8003 20.7645 14.8003C20.8308 15.1888 20.9225 15.5724 21.0392 15.9488C21.1455 16.3094 21.3533 16.7056 21.5438 17.0929C20.7201 17.7651 20.2106 18.5441 20.0334 19.0561C19.7055 20.0043 19.9625 20.4316 20.4454 20.5296C20.6625 20.5741 20.9727 20.4717 21.2031 20.3738C21.5453 20.2593 21.8679 20.0926 22.1597 19.8796C22.7135 19.4701 23.2492 18.8958 23.2137 18.1168C23.2005 17.7651 23.103 17.4134 22.9745 17.0751C23.6701 16.7813 24.5735 16.621 25.7255 16.7546C28.1925 17.0439 28.6755 18.5931 28.5824 19.2386C28.4894 19.8841 27.971 20.2447 27.7982 20.3515C27.6254 20.4584 27.5722 20.4984 27.5855 20.5786C27.6077 20.6943 27.6874 20.6898 27.8336 20.6631C28.0375 20.6275 29.127 20.1378 29.1757 18.9403C29.2466 17.4268 27.7982 15.7618 25.2324 15.7752L25.2337 15.7761ZM6.21802 22.2177C5.40321 23.1125 4.26009 23.4508 3.76872 23.1659C3.24147 22.8578 3.44971 21.541 4.45504 20.5875C5.06648 20.0087 5.8547 19.4745 6.37752 19.1451C6.49715 19.0739 6.66995 18.967 6.88262 18.8379C6.91807 18.8157 6.93579 18.8068 6.93579 18.8068C6.97567 18.7801 7.01997 18.7578 7.06428 18.7311C7.43158 20.0844 7.07757 21.2775 6.21802 22.2168V22.2177ZM12.1711 18.1488C11.8875 18.8477 11.2898 20.6284 10.9265 20.5349C10.6164 20.4548 10.4259 19.097 10.8645 17.7615C11.086 17.0893 11.5557 16.288 11.8348 15.9764C12.2819 15.4734 12.7737 15.3131 12.8889 15.5134C13.044 15.7761 12.3483 17.7126 12.1711 18.1488ZM17.0892 20.5082C16.9696 20.5705 16.8588 20.6106 16.8056 20.5794C16.7657 20.5572 16.8544 20.4726 16.8544 20.4726C16.8544 20.4726 17.4702 19.8093 17.7139 19.5066C17.8557 19.3285 18.0196 19.1193 18.1964 18.8878C18.1964 18.9101 18.2008 18.9323 18.2008 18.959C18.1951 19.7559 17.4335 20.2945 17.0879 20.5082H17.0892ZM20.881 19.6401C20.7924 19.5778 20.8057 19.3686 21.1025 18.7186C21.2177 18.4649 21.4831 18.0375 21.9444 17.628C21.9966 17.783 22.0249 17.9451 22.0285 18.1088C22.0241 19.1104 21.3108 19.4843 20.8814 19.6401H20.881Z" fill="white"/>
</svg>
