<svg width="30" height="30" viewBox="0 0 30 30" fill="none" xmlns="http://www.w3.org/2000/svg">
<path d="M15 6.25C11.3287 6.25 9.04625 8.18958 8.125 12.0833C9.5 10.1437 11.1088 9.41458 12.9375 9.89583C13.9825 10.1729 14.7387 10.975 15.5637 11.8646C16.9113 13.3229 18.4375 15 21.875 15C25.5462 15 27.8288 13.0604 28.75 9.16667C27.375 11.1063 25.7663 11.8354 23.9375 11.3542C22.8925 11.0771 22.15 10.275 21.3113 9.38542C19.9638 7.92708 18.4375 6.25 15 6.25ZM8.125 15C4.45375 15 2.17125 16.9396 1.25 20.8333C2.625 18.8938 4.23375 18.1646 6.0625 18.6458C7.1075 18.9229 7.85 19.725 8.68875 20.6146C10.0363 22.0729 11.5625 23.75 15 23.75C18.6712 23.75 20.9538 21.8104 21.875 17.9167C20.5 19.8563 18.8913 20.5854 17.0625 20.1042C16.0175 19.8271 15.275 19.025 14.4363 18.1354C13.0887 16.6771 11.5625 15 8.125 15Z" fill="white"/>
</svg>
