<svg width="30" height="30" viewBox="0 0 30 30" fill="none" xmlns="http://www.w3.org/2000/svg">
<path d="M25.5 1H4.5C3.57174 1 2.6815 1.36875 2.02513 2.02513C1.36875 2.6815 1 3.57174 1 4.5V25.5C1 26.4283 1.36875 27.3185 2.02513 27.9749C2.6815 28.6313 3.57174 29 4.5 29H25.5C26.4283 29 27.3185 28.6313 27.9749 27.9749C28.6313 27.3185 29 26.4283 29 25.5V4.5C29 3.57174 28.6313 2.6815 27.9749 2.02513C27.3185 1.36875 26.4283 1 25.5 1ZM13.18 22.28C13.18 22.7256 13.003 23.1529 12.6879 23.4679C12.3729 23.783 11.9456 23.96 11.5 23.96H6.32C5.396 23.96 4.64 23.204 4.64 22.28V6.32C4.64 5.87444 4.817 5.44712 5.13206 5.13206C5.44712 4.817 5.87444 4.64 6.32 4.64H11.5C12.424 4.64 13.18 5.396 13.18 6.32V22.28ZM25.36 15.28C25.36 16.204 24.604 16.96 23.68 16.96H18.5C17.576 16.96 16.82 16.204 16.82 15.28V6.32C16.82 5.396 17.576 4.64 18.5 4.64H23.68C24.604 4.64 25.36 5.396 25.36 6.32V15.28Z" fill="white"/>
</svg>
