<svg width="30" height="30" viewBox="0 0 30 30" fill="none" xmlns="http://www.w3.org/2000/svg">
<path d="M26.0611 1.25H3.93889C3.22575 1.25 2.54182 1.53329 2.03756 2.03756C1.53329 2.54182 1.25 3.22575 1.25 3.93889V26.0611C1.25 26.7743 1.53329 27.4582 2.03756 27.9624C2.54182 28.4667 3.22575 28.75 3.93889 28.75H26.0611C26.4142 28.75 26.7639 28.6805 27.0901 28.5453C27.4163 28.4102 27.7128 28.2121 27.9624 27.9624C28.2121 27.7128 28.4102 27.4163 28.5453 27.0901C28.6805 26.7639 28.75 26.4142 28.75 26.0611V3.93889C28.75 3.58578 28.6805 3.23613 28.5453 2.9099C28.4102 2.58366 28.2121 2.28724 27.9624 2.03756C27.7128 1.78787 27.4163 1.58981 27.0901 1.45468C26.7639 1.31955 26.4142 1.25 26.0611 1.25ZM17.2 16.5278H13.7625V26.3667H11.0278V16.5278H7.59028V14.2972H17.2V16.5278ZM26.0611 24.5944C25.8399 25.0647 25.4836 25.4583 25.0375 25.725C24.5682 26.0138 24.0507 26.2157 23.5097 26.3208C22.9066 26.4454 22.2922 26.5068 21.6764 26.5042C21.0463 26.5036 20.4174 26.4474 19.7972 26.3361C19.2701 26.2282 18.7573 26.059 18.2694 25.8319V23.2194L18.1778 23.1278H18.2694V23.2347C18.729 23.5932 19.2454 23.8721 19.7972 24.0597C20.3483 24.2695 20.934 24.3732 21.5236 24.3653C21.8317 24.3707 22.1394 24.3399 22.4403 24.2736C22.6663 24.2207 22.8828 24.1331 23.0819 24.0139C23.2379 23.9188 23.3688 23.7879 23.4639 23.6319C23.558 23.4544 23.5993 23.2536 23.5831 23.0533C23.5668 22.853 23.4937 22.6615 23.3722 22.5014C23.2286 22.3 23.0469 22.1288 22.8375 21.9972C22.5832 21.8184 22.312 21.6649 22.0278 21.5389L21.0042 21.1111C20.1939 20.7774 19.4759 20.2533 18.9111 19.5833C18.4384 19.0135 18.1887 18.2915 18.2083 17.5514C18.1905 16.9891 18.3167 16.4317 18.575 15.9319C18.8215 15.4963 19.1669 15.1248 19.5833 14.8472C20.0474 14.5385 20.5658 14.3208 21.1111 14.2056C21.7073 14.0684 22.3175 14.0017 22.9292 14.0069C23.4862 13.9992 24.043 14.0349 24.5944 14.1139C25.0532 14.1856 25.5037 14.3033 25.9389 14.4653V16.9861C25.7378 16.8428 25.5228 16.7199 25.2972 16.6194C25.0543 16.5149 24.8041 16.4281 24.5486 16.3597C24.3038 16.2881 24.0534 16.2369 23.8 16.2069C23.5663 16.1849 23.331 16.1849 23.0972 16.2069C22.8094 16.2022 22.522 16.233 22.2417 16.2986C22.0117 16.3468 21.7903 16.4292 21.5847 16.5431C21.4243 16.6376 21.2882 16.7684 21.1875 16.925C21.096 17.0772 21.0485 17.2516 21.05 17.4292C21.0463 17.6187 21.0995 17.8049 21.2028 17.9639C21.3283 18.1374 21.4834 18.2874 21.6611 18.4069C21.8765 18.5784 22.1126 18.7221 22.3639 18.8347L23.3264 19.2625C23.7689 19.4455 24.1978 19.6599 24.6097 19.9042C24.9719 20.1024 25.3017 20.3548 25.5875 20.6528C25.8676 20.9242 26.0864 21.2524 26.2292 21.6153C26.3757 22.0324 26.4481 22.4719 26.4431 22.9139C26.4321 23.4845 26.302 24.0465 26.0611 24.5639V24.5944Z" fill="white"/>
</svg>
